<svg
                    viewBox="0 0 24 24"
                    size="16"
                    color="white-60"
                    class="icon-base__IconBase-sc-1efctcf-0 cNEYAo"
                  >
                    <g fill="currentColor">
                      <path
                        fill="currentColor"
                        d="M22 5.786a8.19 8.19 0 0 1-2.352.66 4.11 4.11 0 0 0 1.797-2.276 8.26 8.26 0 0 1-2.6 1.004c-.755-.822-1.816-1.3-3.02-1.3-2.248 0-4.083 1.835-4.083 4.101 0 .325.038.64.105.937a11.658 11.658 0 0 1-8.451-4.283 4.058 4.058 0 0 0-.555 2.055c0 1.425.717 2.687 1.826 3.404-.678 0-1.31-.191-1.864-.478v.029a4.104 4.104 0 0 0 3.289 4.025 4.035 4.035 0 0 1-1.845.066 4.092 4.092 0 0 0 3.824 2.85 8.147 8.147 0 0 1-5.096 1.758c-.325 0-.65-.019-.975-.057a11.61 11.61 0 0 0 6.29 1.845c7.534 0 11.674-6.252 11.674-11.673 0-.182 0-.354-.01-.535A8.194 8.194 0 0 0 22 5.786Z"
                      ></path>
                    </g>
                  </svg>